# xmcd
#
# Track frame offsets:
#	150
#	10381
#	19061
#	34806
#	53525
#	76784
#	102060
#	115023
#	130303
#	146994
#	163117
#	182834
#	197240
#	216646
#
# Disc length: 3149 seconds
#
# Revision: 0
# Processed by: cddbd v1.4PL0 Copyright (c) Steve Scherf et al.
# Submitted via: dBpowerAMP V4.0
#
DISCID=c30c4b0e
DTITLE=Boxx星盒子 - 15:23
DYEAR=2002
DGENRE=Pop
TTITLE0=15:23
TTITLE1=我不懂
TTITLE2=第四根手指尾
TTITLE3=天空一片藍
TTITLE4=我不是耶穌
TTITLE5=吻痕
TTITLE6=我是你的臘腸狗
TTITLE7=紅綠燈
TTITLE8=折磨
TTITLE9=Sayonara
TTITLE10=一個不懂駛機車的傻子
TTITLE11=空白
TTITLE12=我愛墾丁
TTITLE13=002852.....
EXTD=15:23
EXTT0=
EXTT1=
EXTT2=
EXTT3=
EXTT4=
EXTT5=
EXTT6=
EXTT7=
EXTT8=
EXTT9=
EXTT10=
EXTT11=
EXTT12=
EXTT13=
PLAYORDER=
